<?xml version="1.0" standalone="no"?>
<!DOCTYPE svg PUBLIC "-//W3C//DTD SVG 20010904//EN"
 "http://www.w3.org/TR/2001/REC-SVG-20010904/DTD/svg10.dtd">
<svg version="1.0" xmlns="http://www.w3.org/2000/svg"
 width="512.000000pt" height="512.000000pt" viewBox="0 0 512.000000 512.000000"
 preserveAspectRatio="xMidYMid meet">
<metadata>
Created by potrace 1.14, written by Peter Selinger 2001-2017
</metadata>
<g transform="translate(0.000000,512.000000) scale(0.100000,-0.100000)"
fill="#000000" stroke="none">
<path d="M2341 4678 c0 -10 -6 -18 -12 -18 -5 0 -8 4 -5 8 3 5 -1 9 -9 9 -8 0
-12 -4 -9 -8 3 -5 -16 -7 -41 -5 -33 2 -48 -1 -52 -10 -8 -21 -23 -17 -17 4 5
14 4 14 -4 3 -10 -14 -32 -21 -77 -24 -11 -1 -23 -6 -26 -11 -4 -5 -23 -9 -43
-10 -21 0 -35 -5 -32 -12 2 -6 -8 -10 -25 -9 -16 1 -29 -1 -29 -4 0 -3 -12 -7
-26 -8 -15 0 -30 -7 -35 -15 -7 -10 -9 -10 -10 2 0 10 -3 8 -9 -5 -5 -11 -9
-15 -9 -9 -1 6 -8 11 -16 11 -11 0 -12 -3 -3 -14 6 -8 7 -13 2 -12 -30 5 -64
-2 -58 -13 5 -8 2 -9 -9 -5 -10 4 -17 1 -17 -5 0 -6 -3 -8 -7 -5 -3 4 -12 -1
-20 -11 -8 -9 -12 -11 -8 -4 3 6 1 12 -4 12 -6 0 -11 -4 -11 -10 0 -5 -7 -10
-15 -10 -9 0 -25 -9 -37 -20 -12 -11 -27 -20 -32 -20 -6 0 -4 5 4 10 10 7 11
10 2 10 -7 0 -15 -7 -18 -15 -4 -8 -13 -15 -20 -15 -8 0 -17 -7 -21 -16 -5
-13 -7 -13 -14 -2 -7 11 -9 11 -9 -1 0 -7 -6 -11 -14 -8 -10 4 -13 1 -9 -9 4
-10 -3 -14 -23 -14 -21 0 -25 -3 -15 -9 11 -7 9 -10 -10 -13 -14 -2 -23 -9
-21 -17 3 -12 0 -12 -14 0 -12 9 -15 9 -10 2 4 -8 2 -13 -4 -13 -6 0 -8 -5 -4
-12 5 -8 2 -8 -10 1 -14 12 -17 12 -14 0 2 -8 -7 -15 -21 -17 -19 -3 -21 -6
-10 -13 11 -7 11 -9 -3 -9 -10 0 -18 -4 -18 -9 0 -5 -11 -12 -25 -15 -14 -4
-23 -11 -20 -16 3 -6 -1 -10 -9 -10 -9 0 -16 -7 -16 -15 0 -9 -6 -12 -15 -8
-10 3 -15 0 -13 -8 2 -8 -3 -13 -9 -12 -7 2 -13 -2 -13 -8 0 -5 -4 -7 -10 -4
-6 4 -7 -1 -3 -11 4 -11 3 -15 -5 -10 -11 7 -44 -32 -37 -45 3 -3 -3 -6 -13
-5 -9 0 -16 -5 -15 -11 2 -8 -7 -13 -20 -13 -18 0 -19 -2 -7 -10 13 -8 12 -10
-3 -10 -11 0 -15 -4 -11 -12 5 -8 2 -9 -10 -5 -10 4 -15 3 -11 -3 3 -6 1 -10
-4 -10 -6 0 -10 -3 -10 -7 3 -20 -2 -26 -11 -13 -8 12 -10 11 -10 -7 0 -21
-10 -28 -35 -23 -5 1 -5 -4 2 -10 8 -9 6 -17 -8 -31 -11 -11 -24 -17 -29 -14
-6 3 -7 -1 -4 -9 4 -10 1 -16 -7 -16 -7 0 -10 -3 -6 -6 3 -3 -4 -16 -17 -28
-12 -11 -15 -16 -6 -11 9 6 3 -2 -14 -17 -17 -16 -26 -28 -21 -28 6 0 2 -5 -7
-11 -10 -5 -18 -19 -18 -29 0 -23 -16 -35 -24 -18 -4 9 -5 8 -5 -2 3 -35 -2
-51 -11 -45 -5 3 -10 -1 -10 -9 0 -9 -5 -16 -11 -16 -8 0 -7 -6 2 -17 9 -10 9
-14 2 -10 -13 8 -37 -26 -26 -37 3 -3 -1 -6 -9 -6 -10 0 -14 -8 -12 -26 2 -22
0 -23 -14 -12 -11 9 -14 9 -9 1 5 -7 1 -24 -8 -37 -9 -14 -18 -37 -20 -52 -1
-14 -6 -29 -11 -33 -9 -6 -15 -24 -18 -51 0 -8 -5 -18 -11 -22 -10 -7 -11 -11
-14 -45 -1 -16 -3 -16 -11 -3 -5 8 -10 10 -10 5 0 -6 6 -17 13 -24 7 -9 7 -11
1 -8 -7 4 -15 0 -18 -9 -4 -10 -2 -13 7 -8 8 5 7 2 -2 -9 -7 -9 -10 -17 -5
-17 5 0 2 -5 -6 -10 -8 -5 -15 -23 -16 -40 -1 -17 -6 -36 -13 -43 -6 -6 -11
-16 -11 -22 0 -5 5 -3 10 5 6 9 10 10 10 3 0 -6 -4 -15 -10 -18 -5 -3 -10 -20
-10 -36 0 -17 -4 -28 -8 -25 -5 3 -9 -1 -9 -9 0 -8 4 -12 9 -9 4 3 8 0 8 -5 0
-6 -4 -11 -10 -11 -5 0 -10 -5 -10 -11 0 -5 4 -8 8 -5 5 3 9 -1 9 -9 0 -8 -4
-12 -9 -9 -4 3 -9 -4 -9 -15 -2 -29 -3 -34 -12 -48 -5 -8 -4 -13 2 -13 7 0 7
-8 1 -26 -13 -33 -13 -36 3 -29 6 4 4 0 -5 -8 -10 -8 -18 -17 -18 -20 0 -4 8
-4 18 -1 16 5 16 5 0 -5 -18 -12 -23 -75 -5 -64 6 4 7 1 1 -8 -13 -20 -13
-121 0 -138 8 -11 8 -13 -1 -7 -9 5 -13 -2 -13 -23 0 -18 5 -31 13 -31 8 0 7
-4 -3 -10 -13 -8 -13 -13 -2 -31 8 -11 10 -19 5 -16 -5 3 -9 -4 -10 -16 0 -12
1 -16 4 -9 9 24 18 11 17 -25 -1 -21 2 -46 8 -57 7 -13 7 -16 -1 -12 -6 4 -11
3 -11 -3 0 -5 5 -11 12 -13 6 -2 12 -12 14 -21 1 -9 -1 -15 -6 -12 -4 3 -11
-2 -14 -11 -4 -11 -2 -15 7 -11 12 5 16 -15 20 -90 0 -7 5 -13 10 -13 5 0 4
-7 -3 -15 -7 -9 -10 -18 -6 -22 3 -3 6 0 6 8 0 12 2 12 9 0 5 -8 7 -20 4 -28
-3 -8 2 -13 13 -14 15 0 16 -2 4 -7 -8 -4 -16 -13 -18 -21 -2 -11 0 -12 10 -3
11 8 14 7 15 -6 5 -61 11 -85 24 -93 12 -7 12 -9 -1 -9 -13 0 -13 -1 0 -10 8
-5 11 -10 5 -10 -5 0 -2 -5 8 -11 10 -6 17 -22 17 -39 0 -33 28 -73 43 -63 6
3 7 1 3 -6 -4 -6 -12 -8 -18 -5 -5 4 -4 -4 3 -17 7 -13 12 -28 11 -33 -2 -5 4
-6 12 -3 11 4 13 0 10 -19 -3 -16 -1 -23 6 -19 9 5 15 -14 11 -37 0 -4 6 -5
13 -2 11 4 13 0 9 -17 -4 -15 -3 -20 5 -15 7 4 12 1 12 -8 0 -9 6 -16 13 -16
8 0 7 -4 -3 -10 -13 -8 -12 -10 3 -10 10 0 17 -8 17 -20 0 -11 5 -20 11 -20 5
0 7 -4 4 -10 -3 -5 -1 -10 4 -10 6 0 11 -7 11 -16 0 -8 5 -12 10 -9 6 3 10 -3
10 -14 0 -11 5 -23 12 -27 7 -5 8 -3 3 6 -5 9 -4 11 4 6 6 -4 9 -16 6 -27 -5
-15 -3 -17 11 -12 12 4 15 3 10 -5 -4 -7 -2 -12 3 -12 6 0 11 -7 11 -15 0 -8
5 -15 11 -15 5 0 7 -6 3 -13 -6 -9 -5 -9 7 0 12 10 15 8 16 -9 1 -12 7 -26 14
-32 9 -8 10 -7 4 3 -5 9 -4 12 3 7 6 -4 9 -13 5 -21 -3 -10 2 -15 17 -15 11 0
19 -4 16 -9 -10 -16 5 -41 24 -41 11 0 20 -10 24 -25 4 -16 13 -25 27 -25 11
0 17 -4 14 -10 -3 -5 -2 -10 3 -10 5 0 15 -11 22 -25 10 -18 16 -22 22 -13 5
9 8 8 8 -5 0 -11 6 -17 18 -15 11 2 18 -4 20 -19 2 -13 8 -23 13 -23 5 0 18
-9 29 -20 12 -12 25 -18 30 -15 6 4 10 -1 10 -9 0 -9 5 -16 11 -16 5 0 7 -5 4
-10 -4 -6 -3 -10 2 -9 22 4 43 -2 38 -11 -3 -5 2 -10 13 -10 10 0 32 -13 48
-30 16 -16 36 -30 44 -30 9 0 22 -9 30 -20 8 -11 21 -20 29 -20 7 0 22 -10 32
-22 12 -13 19 -16 19 -7 0 8 7 4 16 -9 9 -13 22 -21 29 -18 8 3 19 -2 25 -10
7 -8 21 -14 32 -14 13 0 17 -4 12 -12 -5 -8 0 -7 11 2 10 8 16 10 12 4 -4 -6
3 -20 16 -30 12 -10 16 -12 10 -4 -17 19 -17 35 0 21 8 -6 18 -7 22 -3 5 4 5
2 1 -5 -8 -14 4 -22 38 -25 20 -2 23 -5 13 -17 -10 -12 -9 -13 11 -2 14 7 22
8 22 1 0 -5 3 -9 8 -9 20 3 32 -2 26 -12 -4 -7 1 -7 16 1 15 8 20 8 16 1 -4
-7 1 -11 13 -11 11 0 25 -8 31 -17 11 -17 11 -17 6 0 -4 12 -2 17 6 14 7 -2
12 -9 11 -15 -1 -5 7 -8 18 -5 12 4 25 0 30 -8 7 -12 9 -12 9 1 0 13 2 13 9 1
5 -8 28 -15 51 -16 23 -1 46 -8 51 -16 5 -8 9 -9 9 -3 0 5 11 10 24 10 17 0
22 -5 19 -15 -3 -11 0 -10 11 3 14 17 16 18 16 3 0 -9 5 -17 10 -17 6 0 10 6
10 13 0 8 3 9 8 1 4 -6 24 -11 45 -11 20 0 40 -3 45 -8 4 -4 1 -5 -5 -1 -7 4
-13 2 -13 -3 0 -14 13 -14 28 1 9 9 12 9 12 -2 0 -13 2 -13 10 0 5 8 10 10 10
4 0 -5 21 -11 46 -13 35 -1 44 1 38 11 -6 10 -5 10 7 1 21 -16 203 -17 193 -1
-4 7 -4 10 0 6 5 -4 19 -3 32 2 18 7 22 6 18 -5 -7 -18 25 -13 37 6 6 10 9 10
9 2 0 -7 5 -13 11 -13 5 0 7 5 4 10 -3 6 -1 10 4 10 6 0 11 -5 11 -12 0 -6 7
-3 15 8 10 13 14 14 15 5 0 -11 3 -11 17 0 9 8 14 9 10 2 -5 -7 -1 -10 10 -8
10 2 22 4 26 4 5 1 5 6 1 13 -5 8 -2 9 11 5 9 -4 24 -2 31 4 9 7 14 8 14 1 0
-5 9 -8 20 -5 11 3 17 10 14 15 -4 6 4 5 16 -2 15 -8 20 -8 16 -1 -4 6 -2 11
3 11 20 0 26 2 36 10 6 5 17 5 25 0 20 -13 30 -12 30 1 0 5 -5 7 -12 3 -7 -4
-8 -3 -4 5 6 9 11 9 24 -1 12 -10 14 -10 8 0 -5 8 0 12 13 12 12 0 21 6 21 13
0 9 2 9 9 -1 7 -11 9 -11 14 1 3 9 16 13 32 12 19 -3 25 1 21 10 -3 9 4 12 25
11 16 -1 29 2 29 7 0 5 7 6 15 3 9 -3 18 1 22 10 3 8 12 13 19 10 8 -3 14 2
15 12 0 10 3 12 6 5 2 -7 10 -13 15 -13 6 0 8 3 5 7 -4 3 3 11 16 18 15 8 24
8 29 1 4 -6 8 0 8 14 0 20 2 22 10 10 6 -10 10 -11 10 -2 0 6 5 12 11 12 5 0
7 -5 3 -12 -4 -7 -3 -8 5 -4 6 4 9 11 6 16 -3 4 3 14 12 21 12 10 14 10 9 2
-4 -7 -3 -13 2 -13 6 0 13 7 16 16 4 11 14 15 31 12 22 -5 23 -3 13 10 -10 13
-11 14 0 8 7 -4 14 -1 18 7 3 8 19 17 35 21 17 3 28 10 24 16 -3 5 -1 11 4 11
6 1 16 2 22 3 6 0 17 12 26 26 8 14 12 17 9 8 -3 -12 -1 -15 9 -11 8 3 12 9 9
14 -3 5 0 9 5 9 6 0 11 8 12 18 0 14 2 14 9 -3 7 -16 9 -17 9 -3 1 9 15 22 31
30 32 14 42 31 13 22 -17 -5 -17 -5 0 6 9 6 22 8 29 4 8 -5 9 -2 5 11 -6 14
-3 16 12 12 14 -3 18 -1 14 9 -6 17 13 19 21 2 4 -9 5 -8 5 2 -2 31 1 41 12
35 6 -4 13 2 16 14 3 12 12 21 19 21 8 0 14 8 14 18 0 14 2 15 10 2 8 -13 10
-12 10 3 0 9 5 17 10 17 6 0 10 7 10 16 0 8 4 13 9 10 13 -8 44 31 35 45 -4 8
-3 10 4 5 7 -4 12 -2 12 4 0 6 5 8 12 4 8 -5 9 -2 5 9 -4 11 -1 17 8 17 8 0
15 7 15 16 0 8 4 13 9 9 5 -3 13 0 17 6 4 8 3 9 -4 5 -7 -4 -12 -2 -12 3 0 10
13 15 31 13 4 -1 6 6 5 16 0 9 5 16 12 14 8 -1 11 2 8 7 -4 5 -1 13 5 16 5 4
8 13 5 21 -3 8 0 11 10 7 10 -4 14 2 14 22 0 23 2 25 14 15 13 -10 14 -7 10
14 -3 19 -1 24 10 20 11 -4 14 1 12 21 -3 19 0 25 10 21 8 -3 14 1 14 9 0 8 4
15 10 15 5 0 6 7 3 17 -4 11 -3 14 5 9 7 -4 12 -1 12 8 0 9 6 16 13 16 8 0 7
4 -3 10 -10 6 -11 10 -2 10 6 0 12 7 12 15 0 8 7 15 15 15 8 0 15 5 15 11 0 5
-4 8 -9 4 -5 -3 -13 0 -17 6 -4 8 -3 9 4 5 8 -4 16 3 22 18 5 14 15 26 22 26
6 0 3 7 -8 15 -10 8 -14 15 -9 14 6 -1 18 1 28 6 15 6 16 10 5 16 -10 7 -10 9
0 9 6 0 12 8 12 18 0 10 5 23 10 28 6 6 12 24 14 40 2 16 4 33 5 37 0 5 6 5
12 1 7 -4 7 1 -1 16 -8 15 -8 20 -1 16 7 -5 11 3 11 21 0 16 6 35 13 42 13 13
14 16 16 57 1 17 5 23 14 18 7 -5 6 0 -3 11 -9 11 -10 16 -2 11 6 -4 12 -3 12
1 0 5 -6 15 -12 22 -7 8 -8 11 -3 8 6 -3 17 3 24 15 8 13 8 18 1 13 -14 -9 -9
53 5 63 6 4 10 30 11 57 0 32 5 49 12 48 6 -2 9 4 6 12 -4 8 -10 12 -15 9 -5
-3 -6 2 -3 10 3 9 9 14 13 12 4 -3 8 13 10 35 1 31 -1 39 -11 33 -10 -6 -10
-4 1 9 11 14 11 20 0 34 -8 9 -9 14 -2 10 19 -12 14 173 -6 198 -15 18 -15 19
1 7 15 -12 16 -10 14 17 -1 17 -6 34 -11 38 -4 4 -5 2 0 -6 5 -9 4 -12 -2 -8
-11 7 -11 43 0 53 4 4 2 13 -4 21 -6 7 -8 13 -5 13 4 0 2 10 -5 21 -9 17 -8
20 2 14 9 -6 11 -3 6 9 -4 10 -7 20 -7 22 0 3 -4 3 -8 0 -5 -3 -9 1 -9 9 0 8
3 12 7 10 4 -2 7 2 7 10 0 8 -4 12 -9 9 -4 -3 -8 10 -8 28 0 19 -6 40 -12 47
-7 8 -8 11 -2 8 6 -3 10 4 10 18 0 13 -5 23 -10 22 -6 -1 -10 9 -8 22 3 17 0
21 -10 15 -9 -5 -8 -2 2 11 8 10 10 16 3 12 -14 -9 -29 35 -18 52 6 10 -8 16
-28 12 -5 -1 -6 3 -2 9 3 6 11 8 16 5 5 -3 6 1 3 9 -3 9 -9 14 -13 12 -3 -2
-7 10 -8 27 -1 17 -6 33 -10 36 -5 3 -10 15 -11 26 -2 11 -8 22 -13 23 -5 2
-9 10 -9 18 0 8 -6 14 -12 14 -9 0 -8 4 2 10 10 6 11 10 3 10 -7 0 -13 6 -13
14 0 8 -6 17 -12 19 -9 4 -9 6 1 6 12 1 11 4 -3 14 -15 11 -22 28 -25 60 -1 5
-5 5 -11 2 -6 -4 -10 5 -10 20 0 15 -4 24 -10 20 -5 -3 -11 1 -11 9 -3 34 -5
38 -20 49 -9 7 -15 20 -13 30 2 15 0 16 -14 5 -12 -10 -14 -10 -8 0 4 7 2 12
-6 12 -9 0 -9 3 2 10 13 9 13 10 0 10 -9 0 -27 18 -40 40 -14 22 -28 40 -32
40 -4 0 -5 9 -3 19 3 15 -1 18 -12 14 -13 -5 -15 -2 -10 16 5 19 3 20 -11 9
-12 -10 -14 -10 -8 0 4 6 3 12 -3 12 -6 0 -7 7 -4 17 4 9 2 14 -3 11 -11 -6
-45 28 -36 36 3 3 -6 6 -19 7 -13 0 -19 3 -12 6 10 3 10 7 0 18 -7 7 -16 10
-21 7 -5 -3 -7 2 -3 11 5 13 1 17 -14 17 -11 0 -18 4 -15 9 3 5 -1 12 -10 15
-10 4 -14 12 -10 22 6 14 4 15 -9 4 -13 -11 -16 -11 -13 1 2 8 -2 13 -9 12 -6
-2 -15 6 -18 17 -4 11 -13 20 -21 20 -8 0 -12 5 -9 10 3 6 -1 10 -9 10 -9 0
-16 6 -16 14 0 8 -4 18 -10 21 -6 4 -7 -1 -3 -11 4 -12 3 -15 -5 -10 -7 4 -12
13 -12 21 0 7 -9 17 -20 20 -11 3 -20 11 -20 17 0 6 -9 8 -21 5 -16 -4 -18 -3
-8 9 9 11 7 14 -10 14 -12 0 -19 5 -16 10 3 6 1 10 -5 10 -6 0 -18 7 -26 15
-9 8 -25 15 -36 15 -18 0 -19 2 -7 16 11 13 11 15 -2 14 -7 -1 -23 -2 -34 -1
-17 1 -18 3 -5 11 11 7 6 10 -20 10 -20 0 -30 4 -23 8 9 6 6 11 -8 21 -12 7
-18 8 -15 2 4 -7 1 -8 -8 -5 -9 3 -14 10 -11 14 3 4 -3 7 -13 6 -9 0 -16 5
-14 12 1 8 -2 11 -8 7 -5 -3 -10 -1 -10 4 0 6 -5 11 -11 11 -5 0 -7 -6 -4 -12
3 -7 -2 -3 -11 10 -10 14 -27 22 -45 22 -19 0 -29 5 -29 15 0 8 -5 15 -11 15
-5 0 -7 -4 -4 -10 10 -16 0 -12 -25 10 -13 12 -30 18 -37 16 -7 -3 -13 -1 -13
3 0 5 -7 12 -16 15 -10 4 -13 2 -7 -7 4 -6 -5 -4 -20 6 -14 9 -33 17 -42 17
-8 0 -15 5 -15 10 0 6 -14 10 -31 10 -21 0 -28 4 -23 13 6 10 4 10 -7 0 -7 -7
-18 -13 -23 -13 -6 0 -4 5 4 10 12 8 8 10 -15 11 -16 1 -36 2 -42 2 -7 -1 -13
3 -13 9 0 5 -4 6 -10 3 -5 -3 -10 -1 -10 4 0 6 -5 11 -11 11 -5 0 -8 -4 -5 -8
3 -5 -1 -9 -8 -9 -9 0 -12 7 -9 16 5 13 3 14 -7 4 -10 -9 -19 -9 -43 3 -16 9
-26 11 -23 5 4 -6 2 -11 -3 -11 -6 0 -11 8 -12 18 0 10 -3 12 -6 5 -2 -7 -9
-13 -14 -13 -6 0 -8 4 -5 8 3 5 -7 8 -22 7 -15 -1 -36 5 -47 14 -18 15 -19 15
-7 0 11 -14 9 -16 -13 -16 -14 0 -25 4 -25 9 0 5 6 6 13 2 6 -4 9 -3 4 1 -12
13 -81 14 -89 1 -6 -8 -8 -7 -8 2 0 6 -9 12 -20 12 -11 0 -20 -6 -20 -12 0
-10 -2 -10 -8 -1 -10 16 -199 17 -208 2 -3 -6 -12 -5 -22 3 -12 10 -16 10 -19
1 -3 -7 -9 -13 -14 -13 -6 0 -7 6 -4 13 4 6 0 4 -8 -6 -15 -18 -15 -18 -20 0
-4 16 -5 16 -6 1z m394 -8 c3 -6 -1 -7 -9 -4 -18 7 -21 14 -7 14 6 0 13 -4 16
-10z m-484 -28 c-7 -2 -18 1 -23 6 -8 8 -4 9 13 5 13 -4 18 -8 10 -11z m1199
-172 c0 -5 -2 -10 -4 -10 -3 0 -8 5 -11 10 -3 6 -1 10 4 10 6 0 11 -4 11 -10z
m1100 -1930 c0 -5 -2 -10 -4 -10 -3 0 -8 5 -11 10 -3 6 -1 10 4 10 6 0 11 -4
11 -10z m-3463 -1175 c0 -8 -4 -12 -9 -9 -5 3 -6 10 -3 15 9 13 12 11 12 -6z
m563 -431 c0 -8 -19 -13 -24 -6 -3 5 1 9 9 9 8 0 15 -2 15 -3z"/>
<path d="M4523 2329 c-2 -23 3 -25 10 -4 4 8 3 16 -1 19 -4 3 -9 -4 -9 -15z"/>
<path d="M1225 1200 c-3 -5 -1 -10 4 -10 6 0 11 5 11 10 0 6 -2 10 -4 10 -3 0
-8 -4 -11 -10z"/>
<path d="M1410 1050 c0 -5 5 -10 11 -10 5 0 7 5 4 10 -3 6 -8 10 -11 10 -2 0
-4 -4 -4 -10z"/>
</g>
</svg>
